<svg style="margin-left:0px" version="1.0" xmlns="http://www.w3.org/2000/svg" width="75.000000pt" height="24.000000pt" viewBox="0 0 1000.000000 300.000000" preserveAspectRatio="xMidYMid meet">
          <g transform="translate(0.000000,275.000000) scale(0.100000,-0.100000)" fill="currentColor" stroke="none">
          <path d="M520 2725 c0 -3 0 -104 0 -225 0 -121 0 -224 0 -230 0 -6 84 -10 230 -10 l231 0 -3 -787 c-4 -900 0 -858 -87 -944 -71 -71 -168 -85 -263 -38 -43 22 -73 62 -104 138 l-23 56 -250 3 c-138 1 -251 -1 -251 -5 0 -5 11 -48 24 -98 47 -173 117 -297 228 -401 188 -175 476 -231 735 -142 132 45 199 87 281 173 103 108 159 228 187 400 12 75 15 262 15 1103 l0 1012 -475 0 c-261 0 -475 -2 -475 -5z"></path>
          </g>
        </svg>